<?xml version="1.0" encoding="UTF-8"?>
<!DOCTYPE svg PUBLIC "-//W3C//DTD SVG 1.1//EN" "http://www.w3.org/Graphics/SVG/1.1/DTD/svg11.dtd">
<!-- Creator: CorelDRAW -->
<svg xmlns="http://www.w3.org/2000/svg" xml:space="preserve" width="12.0079in" height="8.46457in" version="1.1" style="shape-rendering:geometricPrecision; text-rendering:geometricPrecision; image-rendering:optimizeQuality; fill-rule:evenodd; clip-rule:evenodd"
viewBox="0 0 12007.87 8464.57"
 xmlns:xlink="http://www.w3.org/1999/xlink"
 xmlns:xodm="http://www.corel.com/coreldraw/odm/2003">
 <defs>
  <style type="text/css">
   <![CDATA[
    .str0 {stroke:#2D2A2B;stroke-width:6.94;stroke-miterlimit:2.61313}
    .fil0 {fill:none}
   ]]>
  </style>
 </defs>
 <g id="Layer_x0020_1">
  <metadata id="CorelCorpID_0Corel-Layer"/>
  <g id="_1020687576">
   <path class="fil0 str0" d="M6808.09 968.72c1644.2,194.24 2747.58,582.9 3310.1,1165.98"/>
   <path class="fil0 str0" d="M6348.78 968.72c-1644.2,194.24 -2747.58,582.9 -3310.1,1165.98"/>
   <path class="fil0 str0" d="M10076.99 2495.63c5.68,-103.94 19.41,-224.26 41.21,-360.94"/>
   <path class="fil0 str0" d="M3079.88 2495.63c-5.68,-103.94 -19.41,-224.26 -41.21,-360.94"/>
   <path class="fil0 str0" d="M10076.99 2495.63c-1038.48,299.79 -1854.24,456.36 -2447.26,469.71 301.28,40.57 1129.74,-32.22 2485.35,-218.37 -41.15,616.12 -61.71,924.17 -61.71,924.17 -966.71,317.32 -1450.07,475.98 -1450.07,475.98 -433,85.48 -755.24,131.33 -966.71,137.56 346.03,-5.28 672.17,-26.87 978.41,-64.76 727.89,-112.61 1227.13,-204.78 1497.68,-276.53 -378.52,92 -877.75,184.17 -1497.68,276.53"/>
   <path class="fil0 str0" d="M3079.88 2495.63c1038.48,299.79 1854.24,456.36 2447.26,469.71 -301.28,40.57 -1129.74,-32.22 -2485.35,-218.37 41.15,616.12 61.71,924.17 61.71,924.17 966.71,317.32 1450.07,475.98 1450.07,475.98 433,85.48 755.24,131.33 966.71,137.56 -346.03,-5.28 -672.17,-26.87 -978.41,-64.76 -727.9,-112.61 -1227.13,-204.78 -1497.68,-276.53 378.52,92 877.75,184.17 1497.68,276.53"/>
   <path class="fil0 str0" d="M9227.89 7319.38c346.13,-107.21 689.93,-171.83 1031.41,-193.83 -256.83,-875.05 -305.71,-1935.76 -146.64,-3182.16"/>
   <path class="fil0 str0" d="M3928.98 7319.38c-346.13,-107.21 -689.93,-171.83 -1031.41,-193.83 256.82,-875.05 305.71,-1935.76 146.64,-3182.16"/>
   <path class="fil0 str0" d="M6808.09 968.72c-137.86,1289.09 -214.41,2705.61 -229.65,4249.57"/>
   <path class="fil0 str0" d="M6348.78 968.72c137.86,1289.09 214.41,2705.61 229.65,4249.57"/>
   <path class="fil0 str0" d="M9227.89 7319.38c-123.02,-575.52 -191.34,-1235.38 -204.93,-1979.56 -240.83,-9.01 -593.07,16.36 -1056.7,76.09 144.15,-0.69 434.01,-5.47 869.59,-14.36 -16.96,597.41 -49.37,1266.59 -97.25,2007.51 -606.68,65.07 -910.02,97.61 -910.02,97.61 -18.41,-502.67 -27.62,-754.02 -27.62,-754.02 -256.35,33.04 -663.85,46.33 -1222.54,39.91"/>
   <path class="fil0 str0" d="M3928.98 7319.38c123.02,-575.52 191.33,-1235.38 204.93,-1979.56 240.84,-9.01 593.07,16.36 1056.7,76.09 -144.15,-0.69 -434.01,-5.47 -869.6,-14.36 16.97,597.41 49.38,1266.59 97.25,2007.51 606.68,65.07 910.02,97.61 910.02,97.61 18.41,-502.67 27.62,-754.02 27.62,-754.02 256.35,33.04 663.85,46.33 1222.54,39.91"/>
  </g>
 </g>
</svg>
