<?xml version="1.0" encoding="UTF-8"?>
<!DOCTYPE svg PUBLIC "-//W3C//DTD SVG 1.1//EN" "http://www.w3.org/Graphics/SVG/1.1/DTD/svg11.dtd">
<!-- Creator: CorelDRAW -->
<svg xmlns="http://www.w3.org/2000/svg" xml:space="preserve" width="12.0079in" height="8.46457in" version="1.1" style="shape-rendering:geometricPrecision; text-rendering:geometricPrecision; image-rendering:optimizeQuality; fill-rule:evenodd; clip-rule:evenodd"
viewBox="0 0 12007.87 8464.57"
 xmlns:xlink="http://www.w3.org/1999/xlink"
 xmlns:xodm="http://www.corel.com/coreldraw/odm/2003">
 <defs>
  <style type="text/css">
   <![CDATA[
    .str0 {stroke:#2D2A2B;stroke-width:6.94;stroke-miterlimit:2.61313}
    .fil0 {fill:none}
   ]]>
  </style>
 </defs>
 <g id="Layer_x0020_1">
  <metadata id="CorelCorpID_0Corel-Layer"/>
  <g id="_273708976">
   <path class="fil0 str0" d="M5866.72 6762.87c365.39,-1.74 740.45,-22.78 1125.19,-63.12 -149.77,607.33 -224.65,911 -224.65,911 541.22,-334.65 811.84,-501.98 811.84,-501.98 379.45,-90.77 569.18,-136.15 569.18,-136.15"/>
   <path class="fil0 str0" d="M5813.25 6762.87c-365.39,-1.74 -740.45,-22.78 -1125.19,-63.12 149.77,607.33 224.65,911 224.65,911 -541.22,-334.65 -811.84,-501.98 -811.84,-501.98 -379.45,-90.77 -569.18,-136.15 -569.18,-136.15"/>
   <path class="fil0 str0" d="M8148.29 6972.63l492.39 -410.98c267.39,-390.25 401.09,-585.37 401.09,-585.37 264.89,-1807.64 397.33,-2711.46 397.33,-2711.46 279.67,12.42 419.51,18.63 419.51,18.63 -156.62,1088.12 -234.93,1632.19 -234.93,1632.19 -160.08,753.53 -240.12,1130.3 -240.12,1130.3 -143.59,355.36 -215.39,533.04 -215.39,533.04 -280.98,332.63 -421.47,498.94 -421.47,498.94 -418.37,270.65 -627.56,405.97 -627.56,405.97 -393.58,115.7 -590.37,173.55 -590.37,173.55 -484.48,361.56 -726.73,542.33 -726.73,542.33 -289.24,73.34 -433.87,110.02 -433.87,110.02l-528.2 24.79"/>
   <path class="fil0 str0" d="M3531.69 6972.63l-492.39 -410.98c-267.39,-390.25 -401.09,-585.37 -401.09,-585.37 -264.89,-1807.64 -397.33,-2711.46 -397.33,-2711.46 -279.67,12.42 -419.51,18.63 -419.51,18.63 156.62,1088.12 234.93,1632.19 234.93,1632.19 160.08,753.53 240.12,1130.3 240.12,1130.3 143.59,355.36 215.39,533.04 215.39,533.04 280.98,332.63 421.47,498.94 421.47,498.94 418.37,270.65 627.56,405.97 627.56,405.97 393.58,115.7 590.37,173.55 590.37,173.55 484.48,361.56 726.73,542.33 726.73,542.33 289.24,73.34 433.87,110.02 433.87,110.02l528.2 24.79"/>
   <path class="fil0 str0" d="M5813.25 6762.87c17.82,538.14 26.74,807.21 26.74,807.21 0,0 8.91,-269.07 26.74,-807.21"/>
  </g>
  <g id="_275142224">
   <path class="fil0 str0" d="M5884.35 1092.9c-1177.61,19.82 -2162.94,-59.59 -2956,-238.24 -254.96,-104.49 -382.44,-156.74 -382.44,-156.74 109.74,615.71 164.6,923.57 164.6,923.57 1.66,764.8 2.49,1147.2 2.49,1147.2 519.41,0 779.12,0 779.12,0 337.73,29.69 736.22,53.06 1195.48,70.08 200.62,-522.16 300.93,-783.24 300.93,-783.24 -162.15,571.63 -243.22,857.44 -243.22,857.44 0,0 379.68,4.13 1139.03,12.37 759.35,-8.25 1139.03,-12.37 1139.03,-12.37 0,0 -81.07,-285.81 -243.22,-857.44 0,0 100.31,261.08 300.93,783.24 459.25,-17.02 857.74,-40.39 1195.48,-70.08 0,0 259.71,0 779.12,0 0,0 0.83,-382.4 2.49,-1147.2 0,0 54.87,-307.86 164.6,-923.57 0,0 -127.48,52.24 -382.44,156.74 -793.05,178.65 -1778.38,258.06 -2956,238.24z"/>
  </g>
 </g>
</svg>
