<?xml version="1.0" encoding="UTF-8"?>
<!DOCTYPE svg PUBLIC "-//W3C//DTD SVG 1.1//EN" "http://www.w3.org/Graphics/SVG/1.1/DTD/svg11.dtd">
<!-- Creator: CorelDRAW -->
<svg xmlns="http://www.w3.org/2000/svg" xml:space="preserve" width="8.46457in" height="12.0079in" version="1.1" style="shape-rendering:geometricPrecision; text-rendering:geometricPrecision; image-rendering:optimizeQuality; fill-rule:evenodd; clip-rule:evenodd"
viewBox="0 0 8464.57 12007.87"
 xmlns:xlink="http://www.w3.org/1999/xlink"
 xmlns:xodm="http://www.corel.com/coreldraw/odm/2003">
 <defs>
  <style type="text/css">
   <![CDATA[
    .str0 {stroke:#2D2A2B;stroke-width:6.94;stroke-miterlimit:2.61313}
    .fil0 {fill:none}
   ]]>
  </style>
 </defs>
 <g id="Layer_x0020_1">
  <metadata id="CorelCorpID_0Corel-Layer"/>
  <path class="fil0 str0" d="M3669.08 2135.59c130.75,-719.98 769.17,-1250.85 1498.04,-1185.93 728.87,64.93 1312.95,689.27 1314.39,1421.02 1.44,731.76 -474.13,1308.04 -1199.13,1407.26 -560.05,76.64 -1032.91,-150.19 -1313.21,-519.76 -238.44,-314.37 -329.8,-735.67 -300.08,-1122.59z"/>
  <path class="fil0 str0" d="M5060.1 5512.87c-610.43,-38.14 -915.65,-57.21 -915.65,-57.21 157.41,-554.87 709.38,-866.69 1277.76,-768.73 568.38,97.96 969.98,574.15 932.56,1149.69 -37.43,575.55 -516.79,1075.76 -1093.07,1099.28 -328.55,13.41 -636.32,-96.36 -848.86,-328.36 -160.26,-174.94 -262.91,-434.14 -299.11,-679.42 623.39,7.06 935.09,10.58 935.09,10.58 116.06,0.85 211.44,-91.36 214.51,-207.37 3.07,-116.02 -87.29,-213.15 -203.23,-218.44z"/>
  <path class="fil0 str0" d="M167.3 1365.78c604.43,91.03 1096.05,534.26 1249,1126.06 152.95,591.8 -62.34,1217.74 -546.97,1590.24"/>
  <path class="fil0 str0" d="M1030.15 4272.74c571.38,-437.51 821.98,-1176.76 634.44,-1871.54 -187.54,-694.78 -776.08,-1207.52 -1490,-1298.09 -4.86,175.11 -7.29,262.67 -7.29,262.67"/>
  <path class="fil0 str0" d="M869.34 4082.07c34.75,78.12 52.13,117.18 52.13,117.18 72.46,48.99 108.69,73.49 108.69,73.49"/>
  <path class="fil0 str0" d="M5353.59 7731.36c129.2,1224.03 193.8,1836.05 193.8,1836.05 0,0 -400.17,13.69 -1200.52,41.07 0,0 -403.83,-13.72 -1211.49,-41.16 0,0 63.11,-612.98 189.31,-1838.94 0,0 170.82,-9.96 512.45,-29.88 0,0 332.67,-0.5 998.01,-1.49 0,0 172.81,11.45 518.43,34.36z"/>
 </g>
</svg>
