<?xml version="1.0" encoding="UTF-8"?>
<!DOCTYPE svg PUBLIC "-//W3C//DTD SVG 1.1//EN" "http://www.w3.org/Graphics/SVG/1.1/DTD/svg11.dtd">
<!-- Creator: CorelDRAW -->
<svg xmlns="http://www.w3.org/2000/svg" xml:space="preserve" width="8.46457in" height="12.0079in" version="1.1" style="shape-rendering:geometricPrecision; text-rendering:geometricPrecision; image-rendering:optimizeQuality; fill-rule:evenodd; clip-rule:evenodd"
viewBox="0 0 8464.57 12007.87"
 xmlns:xlink="http://www.w3.org/1999/xlink"
 xmlns:xodm="http://www.corel.com/coreldraw/odm/2003">
 <defs>
  <style type="text/css">
   <![CDATA[
    .str0 {stroke:#2D2A2B;stroke-width:6.94;stroke-miterlimit:2.61313}
    .fil0 {fill:none}
   ]]>
  </style>
 </defs>
 <g id="Layer_x0020_1">
  <metadata id="CorelCorpID_0Corel-Layer"/>
  <path class="fil0 str0" d="M2752.18 7213.44c-311.69,362.56 -467.53,543.85 -467.53,543.85 138.69,73.7 208.04,110.55 208.04,110.55 -155.79,-1.67 -233.68,-2.51 -233.68,-2.51 -205.93,576.04 -308.89,864.06 -308.89,864.06 154.19,31.38 231.29,47.07 231.29,47.07 370.1,-132.21 555.15,-198.31 555.15,-198.31 296.7,40.24 445.05,60.36 445.05,60.36 444.96,-34.62 667.45,-51.93 667.45,-51.93 514.02,-241.13 771.03,-361.7 771.03,-361.7 4.19,-48.62 6.29,-72.93 6.29,-72.93 143.15,-322.42 214.73,-483.63 214.73,-483.63 1192.18,-245.41 1788.27,-368.12 1788.27,-368.12 186.35,-556.96 388.76,-1576.93 607.21,-3059.91 -225.66,-487.94 -338.49,-731.92 -338.49,-731.92 -569.08,-618.98 -853.62,-928.47 -853.62,-928.47 -581.09,-370.77 -871.63,-556.15 -871.63,-556.15 -556.99,-208.36 -835.48,-312.54 -835.48,-312.54 -871.53,3.44 -1307.3,5.15 -1307.3,5.15 -698.26,228.95 -1047.39,343.43 -1047.39,343.43"/>
  <path class="fil0 str0" d="M577.51 5588.01c440.47,-424.3 660.7,-636.46 660.7,-636.46 454.4,709.98 681.6,1064.97 681.6,1064.97 -278.35,822.97 -417.52,1234.45 -417.52,1234.45 -2.77,359.93 -4.15,539.9 -4.15,539.9 -88.59,48.53 -132.89,72.8 -132.89,72.8 1.24,299.25 1.87,448.88 1.87,448.88 90.52,45.35 135.77,68.02 135.77,68.02 7.23,365.67 10.85,548.5 10.85,548.5 288.07,816.92 432.1,1225.38 432.1,1225.38 -449.26,715.42 -673.89,1073.13 -673.89,1073.13 -443.85,-419.97 -665.78,-629.96 -665.78,-629.96 362.96,-553.52 544.45,-830.27 544.45,-830.27"/>
  <path class="fil0 str0" d="M1982.65 2059.78c327.95,1241.4 491.93,1862.1 491.93,1862.1 69.4,64.81 104.1,97.21 104.1,97.21l122.09 30.24 114.81 -30.62c635.77,-104.01 1275.07,164.41 1646.04,691.11 370.96,526.7 408.35,1219.06 96.26,1782.64 -312.09,563.58 -918.77,899.28 -1562.04,864.34 -82.52,-49.67 -123.78,-74.5 -123.78,-74.5 45.53,-67.51 68.3,-101.27 68.3,-101.27 -87.92,-54.95 -131.88,-82.43 -131.88,-82.43 -37.53,76.56 -56.3,114.83 -56.3,114.83"/>
  <path class="fil0 str0" d="M1150.62 9767.36c-243.99,-477.3 -365.98,-715.96 -365.98,-715.96 -7.89,-1280.81 -11.84,-1921.22 -11.84,-1921.22 238.94,-479.26 358.41,-718.89 358.41,-718.89 -369.13,-548.86 -553.7,-823.29 -553.7,-823.29"/>
 </g>
</svg>
