<?xml version="1.0" encoding="UTF-8"?>
<!DOCTYPE svg PUBLIC "-//W3C//DTD SVG 1.1//EN" "http://www.w3.org/Graphics/SVG/1.1/DTD/svg11.dtd">
<!-- Creator: CorelDRAW -->
<svg xmlns="http://www.w3.org/2000/svg" xml:space="preserve" width="12.0079in" height="8.46457in" version="1.1" style="shape-rendering:geometricPrecision; text-rendering:geometricPrecision; image-rendering:optimizeQuality; fill-rule:evenodd; clip-rule:evenodd"
viewBox="0 0 12007.87 8464.57"
 xmlns:xlink="http://www.w3.org/1999/xlink"
 xmlns:xodm="http://www.corel.com/coreldraw/odm/2003">
 <defs>
  <style type="text/css">
   <![CDATA[
    .str0 {stroke:#2D2A2B;stroke-width:6.94;stroke-miterlimit:2.61313}
    .fil0 {fill:none}
   ]]>
  </style>
 </defs>
 <g id="Layer_x0020_1">
  <metadata id="CorelCorpID_0Corel-Layer"/>
  <g id="_2180234888">
   <path class="fil0 str0" d="M6104.06 4996.18c0,0 -10.73,695.08 -32.19,2085.23 -362.2,-12.33 -726.84,4.58 -1093.92,50.74 0,0 -173.36,193.35 -520.08,580.07 0,0 -300.68,-66.48 -902.03,-199.43 0,0 22.3,-161.28 66.91,-483.84 0,0 -125.04,-191.79 -375.12,-575.37 0,0 -233.94,-123.31 -701.84,-369.93 0,0 -300.24,-64.78 -900.72,-194.33 0,0 -138.87,-148.38 -416.6,-445.14 402.57,-27.45 895.81,-36.02 1479.73,-25.71 0,0 239.31,47.73 717.93,143.2 0,0 207.37,122.19 622.12,366.58 0,0 188.19,173.88 564.56,521.64 0,0 -177.51,-187.58 -532.52,-562.74 0,0 -202.06,-137.85 -606.17,-413.56 0,0 -231.64,-100.08 -694.93,-300.25 0,0 -471.22,-142.57 -1413.66,-427.72 0,0 338.31,-508.92 1014.94,-1526.76 -324.01,-625.55 -881.66,-1494.35 -1672.95,-2606.42 0,0 381.27,231.33 1143.81,693.98 0,0 254.74,285.13 764.21,855.4 0,0 129.54,187.43 388.62,562.3 0,0 122.3,233.75 366.91,701.25 0,0 -177.3,246.06 -531.91,738.16 0,0 197.57,56.45 592.7,169.34 383.22,42.08 772.56,49.31 1168.03,21.71 103.21,478.93 191.85,850.4 265.92,1114.39 0,0 4.68,91.75 14.03,275.24 0,0 0.68,-93.04 2.04,-279.12 -66.72,-366.68 -118.26,-748.59 -154.6,-1145.74 0,0 178.02,-22.43 534.05,-67.3 0,0 35.67,-84.43 107.02,-253.3 0,0 245.24,1.46 735.74,4.37 490.49,-2.91 735.74,-4.37 735.74,-4.37 71.35,168.87 107.02,253.3 107.02,253.3 356.03,44.87 534.05,67.3 534.05,67.3 -36.34,397.15 -87.88,779.06 -154.6,1145.74 1.36,186.08 2.04,279.12 2.04,279.12 9.35,-183.5 14.03,-275.24 14.03,-275.24 74.07,-263.99 162.71,-635.45 265.92,-1114.39 395.47,27.61 784.81,20.37 1168.03,-21.71 395.13,-112.89 592.7,-169.34 592.7,-169.34 -354.61,-492.11 -531.91,-738.16 -531.91,-738.16 244.6,-467.5 366.91,-701.25 366.91,-701.25 259.08,-374.87 388.62,-562.3 388.62,-562.3 509.48,-570.26 764.21,-855.4 764.21,-855.4 762.54,-462.65 1143.81,-693.98 1143.81,-693.98 -791.29,1112.06 -1348.94,1980.87 -1672.95,2606.42 676.63,1017.84 1014.94,1526.76 1014.94,1526.76 -942.44,285.15 -1413.66,427.72 -1413.66,427.72 -463.29,200.17 -694.93,300.25 -694.93,300.25 -404.11,275.7 -606.17,413.56 -606.17,413.56 -355.02,375.16 -532.52,562.74 -532.52,562.74 376.37,-347.76 564.56,-521.64 564.56,-521.64 414.75,-244.39 622.12,-366.58 622.12,-366.58 478.62,-95.46 717.93,-143.2 717.93,-143.2 583.92,-10.31 1077.16,-1.74 1479.73,25.71 -277.74,296.76 -416.6,445.14 -416.6,445.14 -600.48,129.56 -900.72,194.33 -900.72,194.33 -467.89,246.62 -701.84,369.93 -701.84,369.93 -250.08,383.58 -375.12,575.37 -375.12,575.37 44.61,322.56 66.91,483.84 66.91,483.84 -601.35,132.96 -902.03,199.43 -902.03,199.43 -346.72,-386.71 -520.08,-580.07 -520.08,-580.07 -367.08,-46.16 -731.72,-63.07 -1093.92,-50.74 -21.46,-1390.15 -32.19,-2085.23 -32.19,-2085.23"/>
   <path class="fil0 str0" d="M6104.06 4003.11c-490.49,-2.91 -735.74,-4.37 -735.74,-4.37 -71.35,168.87 -107.02,253.3 -107.02,253.3 -356.03,44.87 -534.05,67.3 -534.05,67.3 36.34,397.15 87.88,779.06 154.6,1145.74 -1.36,186.08 -2.04,279.12 -2.04,279.12 -9.35,-183.5 -14.03,-275.24 -14.03,-275.24 -74.07,-263.99 -162.71,-635.45 -265.92,-1114.39 -395.47,27.61 -784.81,20.37 -1168.03,-21.71 -395.13,-112.89 -592.7,-169.34 -592.7,-169.34 354.61,-492.11 531.91,-738.16 531.91,-738.16 -244.6,-467.5 -366.91,-701.25 -366.91,-701.25 -259.08,-374.87 -388.62,-562.3 -388.62,-562.3 -509.48,-570.26 -764.21,-855.4 -764.21,-855.4 -762.54,-462.65 -1143.81,-693.98 -1143.81,-693.98 791.29,1112.06 1348.94,1980.87 1672.95,2606.42 -676.63,1017.84 -1014.94,1526.76 -1014.94,1526.76 942.44,285.15 1413.66,427.72 1413.66,427.72 463.29,200.17 694.93,300.25 694.93,300.25 404.11,275.7 606.17,413.56 606.17,413.56 355.02,375.16 532.52,562.74 532.52,562.74 -376.37,-347.76 -564.56,-521.64 -564.56,-521.64 -414.75,-244.39 -622.12,-366.58 -622.12,-366.58 -478.62,-95.46 -717.93,-143.2 -717.93,-143.2 -583.92,-10.31 -1077.16,-1.74 -1479.73,25.71 277.74,296.76 416.6,445.14 416.6,445.14 600.48,129.56 900.72,194.33 900.72,194.33 467.89,246.62 701.84,369.93 701.84,369.93 250.08,383.58 375.12,575.37 375.12,575.37 -44.61,322.56 -66.91,483.84 -66.91,483.84 601.35,132.96 902.03,199.43 902.03,199.43 346.72,-386.71 520.08,-580.07 520.08,-580.07 367.08,-46.16 731.72,-63.07 1093.92,-50.74 21.46,-1390.15 32.19,-2085.23 32.19,-2085.23"/>
  </g>
 </g>
</svg>
