<?xml version="1.0" encoding="UTF-8"?>
<!DOCTYPE svg PUBLIC "-//W3C//DTD SVG 1.1//EN" "http://www.w3.org/Graphics/SVG/1.1/DTD/svg11.dtd">
<!-- Creator: CorelDRAW -->
<svg xmlns="http://www.w3.org/2000/svg" xml:space="preserve" width="12.0079in" height="8.46457in" version="1.1" style="shape-rendering:geometricPrecision; text-rendering:geometricPrecision; image-rendering:optimizeQuality; fill-rule:evenodd; clip-rule:evenodd"
viewBox="0 0 12007.87 8464.57"
 xmlns:xlink="http://www.w3.org/1999/xlink"
 xmlns:xodm="http://www.corel.com/coreldraw/odm/2003">
 <defs>
  <style type="text/css">
   <![CDATA[
    .str0 {stroke:#2D2A2B;stroke-width:6.94;stroke-miterlimit:2.61313}
    .fil0 {fill:none}
   ]]>
  </style>
 </defs>
 <g id="Layer_x0020_1">
  <metadata id="CorelCorpID_0Corel-Layer"/>
  <g id="_2598794872">
   <path class="fil0 str0" d="M6327.22 1204.83c455.77,-9.56 683.65,-14.34 683.65,-14.34 778.24,-375.33 1167.36,-563 1167.36,-563 1688.66,736.8 2532.99,1105.2 2532.99,1105.2l271.94 190.46c276.63,553.14 414.94,829.7 414.94,829.7 -160.22,362.01 -240.33,543.02 -240.33,543.02 -244.69,195.81 -367.03,293.71 -367.03,293.71 -270.63,365.6 -405.95,548.41 -405.95,548.41l-287.48 711.62c-878.4,-1536.44 -1317.6,-2304.67 -1317.6,-2304.67 382.79,-443.39 574.19,-665.09 574.19,-665.09 -713.43,-391.59 -1070.15,-587.39 -1070.15,-587.39 -770.09,330.14 -1155.14,495.2 -1155.14,495.2 -332.57,12.37 -498.85,18.55 -498.85,18.55 -44.43,112.63 -66.65,168.94 -66.65,168.94l-235.89 7"/>
   <path class="fil0 str0" d="M6327.22 1204.83c-455.77,-9.56 -683.65,-14.34 -683.65,-14.34 -778.24,-375.33 -1167.36,-563 -1167.36,-563 -1688.66,736.8 -2532.99,1105.2 -2532.99,1105.2l-271.94 190.46c-276.63,553.14 -414.94,829.7 -414.94,829.7 160.22,362.01 240.33,543.02 240.33,543.02 244.69,195.81 367.03,293.71 367.03,293.71 270.63,365.6 405.95,548.41 405.95,548.41l287.48 711.62c878.4,-1536.44 1317.6,-2304.67 1317.6,-2304.67 -382.79,-443.39 -574.19,-665.09 -574.19,-665.09 713.43,-391.59 1070.15,-587.39 1070.15,-587.39 770.09,330.14 1155.14,495.2 1155.14,495.2 332.57,12.37 498.85,18.55 498.85,18.55 44.43,112.63 66.65,168.94 66.65,168.94l235.89 7"/>
   <path class="fil0 str0" d="M6327.22 2452.12c447.41,12.3 671.11,18.45 671.11,18.45 1158.28,2462.9 1737.43,3694.35 1737.43,3694.35 109.72,177.67 164.58,266.5 164.58,266.5 225.6,576.13 338.4,864.19 338.4,864.19l-219.76 33.7c-244.47,-570.74 -366.71,-856.11 -366.71,-856.11 -106.96,-169.87 -160.44,-254.81 -160.44,-254.81 -845.04,-526.74 -1267.56,-790.11 -1267.56,-790.11 -359.54,-140.69 -539.3,-211.03 -539.3,-211.03l-357.75 0"/>
   <path class="fil0 str0" d="M6327.22 2452.12c-447.41,12.3 -671.11,18.45 -671.11,18.45 -1158.28,2462.9 -1737.43,3694.35 -1737.43,3694.35 -109.72,177.67 -164.58,266.5 -164.58,266.5 -225.6,576.13 -338.4,864.19 -338.4,864.19l219.76 33.7c244.47,-570.74 366.71,-856.11 366.71,-856.11 106.96,-169.87 160.44,-254.81 160.44,-254.81 845.04,-526.74 1267.56,-790.11 1267.56,-790.11 359.54,-140.69 539.3,-211.03 539.3,-211.03l357.75 0"/>
   <path class="fil0 str0" d="M6327.22 2864.07c284.48,5.47 426.72,8.2 426.72,8.2l360.91 787.43"/>
   <path class="fil0 str0" d="M6327.22 2864.07c-284.48,5.47 -426.72,8.2 -426.72,8.2l-360.91 787.43"/>
  </g>
 </g>
</svg>
