<?xml version="1.0" encoding="UTF-8"?>
<!DOCTYPE svg PUBLIC "-//W3C//DTD SVG 1.1//EN" "http://www.w3.org/Graphics/SVG/1.1/DTD/svg11.dtd">
<!-- Creator: CorelDRAW -->
<svg xmlns="http://www.w3.org/2000/svg" xml:space="preserve" width="8.46457in" height="12.0079in" version="1.1" style="shape-rendering:geometricPrecision; text-rendering:geometricPrecision; image-rendering:optimizeQuality; fill-rule:evenodd; clip-rule:evenodd"
viewBox="0 0 8464.57 12007.87"
 xmlns:xlink="http://www.w3.org/1999/xlink"
 xmlns:xodm="http://www.corel.com/coreldraw/odm/2003">
 <defs>
  <style type="text/css">
   <![CDATA[
    .str0 {stroke:#2D2A2B;stroke-width:6.94;stroke-miterlimit:2.61313}
    .fil0 {fill:none}
   ]]>
  </style>
 </defs>
 <g id="Layer_x0020_1">
  <metadata id="CorelCorpID_0Corel-Layer"/>
  <path class="fil0 str0" d="M8067.93 1363.52c1.9,-184.84 2.85,-277.26 2.85,-277.26 -659.99,-138.91 -1391.29,136.52 -1772.53,694.08 0,0 -36.47,9.17 -109.42,27.5 0,0 -488.23,-237.72 -1464.7,-713.16 0,0 -43.77,-51.31 -131.31,-153.93 0,0 -104.22,-35.36 -312.65,-106.09 -343.81,-110.38 -871.79,-181.43 -1583.93,-213.15 0,0 4.5,41.54 13.49,124.62 -678.29,-42.51 -1441.63,-40.36 -2290.05,6.46 0,0 5.09,-41.43 15.28,-124.31 0,0 -83.06,3.81 -249.17,11.43 0,0 -0.56,571.56 -1.68,1714.7 0,0 93.74,-9.97 281.2,-29.91 0,0 54.93,-125.2 164.8,-375.59 643,-33.31 1267.01,-33.61 1872.03,-0.87 0,0 53.53,124.93 160.58,374.8 0,0 431.41,46.22 1294.23,138.66 0,0 360.78,77.54 1082.36,232.6 0,0 357.02,64.81 1071.07,194.43 0,0 46.78,-8.27 140.33,-24.81 0,0 32.75,-27.96 98.24,-83.9 -22.3,-438.43 164.31,-861.54 503.13,-1140.69 338.82,-279.15 789.8,-381.38 1215.87,-275.61z"/>
  <path class="fil0 str0" d="M6402.19 8113.19c44.43,96.3 66.65,144.44 66.65,144.44 749.44,-187.93 1273.47,-863.59 1269.02,-1636.22 -4.45,-772.63 -536.24,-1442.21 -1287.79,-1621.48 -751.56,-179.28 -1528.33,178.16 -1881.06,865.58 -604.45,-421.56 -906.67,-632.33 -906.67,-632.33 -171.75,-79.64 -257.63,-119.46 -257.63,-119.46 -79.64,-102.18 -119.46,-153.27 -119.46,-153.27 -377.91,-173.01 -566.87,-259.52 -566.87,-259.52 -385.07,-164.54 -577.61,-246.81 -577.61,-246.81 -354.22,-69.7 -531.33,-104.55 -531.33,-104.55 -62.47,-240.7 -93.71,-361.05 -93.71,-361.05 -95.84,-42.98 -143.76,-64.47 -143.76,-64.47 -616.37,-59.85 -1011.84,-75.58 -1186.41,-47.17 0.88,1073.67 1.32,1610.5 1.32,1610.5 447.82,-25.12 846.09,2.76 1194.79,83.67 169.08,580.5 253.62,870.76 253.62,870.76 424.76,130.98 856.07,318.07 1293.94,561.28 384.19,230.89 1439.18,1057.08 3164.96,2478.58 2.34,-385.36 3.52,-578.04 3.52,-578.04 195.59,-446.8 293.39,-670.19 293.39,-670.19l11.09 -120.23z"/>
 </g>
</svg>
