<?xml version="1.0" encoding="UTF-8"?>
<!DOCTYPE svg PUBLIC "-//W3C//DTD SVG 1.1//EN" "http://www.w3.org/Graphics/SVG/1.1/DTD/svg11.dtd">
<!-- Creator: CorelDRAW -->
<svg xmlns="http://www.w3.org/2000/svg" xml:space="preserve" width="12.0079in" height="8.46457in" version="1.1" style="shape-rendering:geometricPrecision; text-rendering:geometricPrecision; image-rendering:optimizeQuality; fill-rule:evenodd; clip-rule:evenodd"
viewBox="0 0 12007.87 8464.57"
 xmlns:xlink="http://www.w3.org/1999/xlink"
 xmlns:xodm="http://www.corel.com/coreldraw/odm/2003">
 <defs>
  <style type="text/css">
   <![CDATA[
    .str0 {stroke:#2D2A2B;stroke-width:6.94;stroke-miterlimit:2.61313}
    .fil0 {fill:none}
   ]]>
  </style>
 </defs>
 <g id="Layer_x0020_1">
  <metadata id="CorelCorpID_0Corel-Layer"/>
  <g id="_529372176">
   <path class="fil0 str0" d="M5896.32 4734.53c-37.41,755.16 -56.12,1132.74 -56.12,1132.74"/>
   <path class="fil0 str0" d="M5784.07 4734.53c37.41,755.16 56.12,1132.74 56.12,1132.74"/>
   <path class="fil0 str0" d="M5896.32 4734.53c93.43,-8.78 178.52,-16.78 255.25,-23.99 352.84,-33.16 529.26,-49.75 529.26,-49.75 178.82,-945.55 515.37,-2014.52 1009.66,-3206.93 566.48,166.52 849.72,249.78 849.72,249.78"/>
   <path class="fil0 str0" d="M5784.07 4734.53c-93.43,-8.78 -178.52,-16.78 -255.25,-23.99 -352.84,-33.16 -529.26,-49.75 -529.26,-49.75 -178.82,-945.55 -515.37,-2014.52 -1009.66,-3206.93 -566.48,166.52 -849.72,249.78 -849.72,249.78"/>
   <path class="fil0 str0" d="M8732.37 1782.42c409.99,204.09 614.98,306.14 614.98,306.14"/>
   <path class="fil0 str0" d="M2948.02 1782.42c-409.99,204.09 -614.98,306.14 -614.98,306.14"/>
   <path class="fil0 str0" d="M9673.52 2252.46c261.26,234.42 391.9,351.63 391.9,351.63"/>
   <path class="fil0 str0" d="M2006.88 2252.46c-261.26,234.42 -391.9,351.63 -391.9,351.63"/>
   <path class="fil0 str0" d="M6563.92 6944.73c0,0 -236.28,3.41 -708.82,10.24 -9.93,-165.26 -14.9,-247.88 -14.9,-247.88"/>
   <path class="fil0 str0" d="M5116.48 6944.73c0,0 236.28,3.41 708.82,10.24 9.93,-165.26 14.9,-247.88 14.9,-247.88"/>
   <path class="fil0 str0" d="M6596.69 6934.49c452.06,-64.19 678.09,-96.29 678.09,-96.29"/>
   <path class="fil0 str0" d="M5083.7 6934.49c-452.06,-64.19 -678.09,-96.29 -678.09,-96.29"/>
   <path class="fil0 str0" d="M7959.02 6691.4c-439.77,95.14 -659.65,142.7 -659.65,142.7"/>
   <path class="fil0 str0" d="M3721.37 6691.4c439.77,95.14 659.65,142.7 659.65,142.7"/>
   <path class="fil0 str0" d="M8460.14 6211.41c107.06,169.3 160.59,253.94 160.59,253.94 0,0 -207.59,67.6 -622.78,202.81"/>
   <path class="fil0 str0" d="M3220.25 6211.41c-107.06,169.3 -160.59,253.94 -160.59,253.94 0,0 207.59,67.6 622.78,202.81"/>
   <path class="fil0 str0" d="M6563.92 6944.73c-23.94,-158.54 -35.91,-237.81 -35.91,-237.81l68.69 227.57"/>
   <path class="fil0 str0" d="M5116.48 6944.73c23.94,-158.54 35.91,-237.81 35.91,-237.81l-68.69 227.57"/>
   <path class="fil0 str0" d="M7274.79 6838.2c-33.48,-161.16 -50.22,-241.74 -50.22,-241.74l74.8 237.64"/>
   <path class="fil0 str0" d="M4405.61 6838.2c33.48,-161.16 50.22,-241.74 50.22,-241.74l-74.8 237.64"/>
   <path class="fil0 str0" d="M7997.95 6668.17c-97.53,-129.75 -146.29,-194.62 -146.29,-194.62 22.61,34.38 58.39,107 107.37,217.85"/>
   <path class="fil0 str0" d="M3682.44 6668.17c97.53,-129.75 146.29,-194.62 146.29,-194.62 -22.61,34.38 -58.39,107 -107.37,217.85"/>
   <path class="fil0 str0" d="M10065.41 2604.08c-687,955.71 -1222.09,2158.15 -1605.27,3607.33"/>
   <path class="fil0 str0" d="M1614.98 2604.08c687,955.71 1222.09,2158.15 1605.27,3607.33"/>
   <path class="fil0 str0" d="M8732.37 1782.42c-476.54,682.04 -905.58,1654.35 -1287.11,2916.93 443.64,-1640.54 808.63,-2639.11 1094.95,-2995.71"/>
   <path class="fil0 str0" d="M2948.02 1782.42c476.54,682.04 905.58,1654.35 1287.11,2916.93 -443.64,-1640.54 -808.63,-2639.11 -1094.95,-2995.71"/>
   <path class="fil0 str0" d="M9673.52 2252.46c-706.8,828.67 -1263.63,1853.2 -1670.47,3073.62 297.7,-1325.01 745.81,-2404.19 1344.31,-3237.51"/>
   <path class="fil0 str0" d="M2006.88 2252.46c706.8,828.67 1263.63,1853.2 1670.47,3073.62 -297.7,-1325.01 -745.81,-2404.19 -1344.31,-3237.51"/>
  </g>
 </g>
</svg>
