<?xml version="1.0" encoding="UTF-8"?>
<!DOCTYPE svg PUBLIC "-//W3C//DTD SVG 1.1//EN" "http://www.w3.org/Graphics/SVG/1.1/DTD/svg11.dtd">
<!-- Creator: CorelDRAW -->
<svg xmlns="http://www.w3.org/2000/svg" xml:space="preserve" width="8.46457in" height="12.0079in" version="1.1" style="shape-rendering:geometricPrecision; text-rendering:geometricPrecision; image-rendering:optimizeQuality; fill-rule:evenodd; clip-rule:evenodd"
viewBox="0 0 8464.57 12007.87"
 xmlns:xlink="http://www.w3.org/1999/xlink"
 xmlns:xodm="http://www.corel.com/coreldraw/odm/2003">
 <defs>
  <style type="text/css">
   <![CDATA[
    .str0 {stroke:#2D2A2B;stroke-width:6.94;stroke-miterlimit:2.61313}
    .fil0 {fill:none}
   ]]>
  </style>
 </defs>
 <g id="Layer_x0020_1">
  <metadata id="CorelCorpID_0Corel-Layer"/>
  <path class="fil0 str0" d="M4663.96 2802.92c-33.71,-699.02 -542.75,-1283.54 -1230.5,-1412.98 -687.76,-129.44 -1374.46,230.04 -1659.97,868.98 -285.52,638.94 -95.22,1390.31 460.01,1816.32"/>
  <path class="fil0 str0" d="M2070.57 4267.17c-535.91,-450.54 -764.48,-1169.39 -587.19,-1846.71 177.28,-677.31 728.73,-1192 1416.65,-1322.2 687.92,-130.21 1389.32,147.34 1801.87,713.01"/>
  <path class="fil0 str0" d="M2070.57 4267.17c74.83,-47.3 112.25,-70.94 112.25,-70.94 33.79,-80.66 50.68,-120.98 50.68,-120.98"/>
  <path class="fil0 str0" d="M4701.89 1811.26c74.63,23.94 111.94,35.91 111.94,35.91 977.84,-481.35 1466.76,-722.02 1466.76,-722.02 87.07,-108.32 130.6,-162.48 130.6,-162.48 615.86,-189.22 1167.36,-287.78 1654.49,-295.68"/>
  <path class="fil0 str0" d="M8065.68 666.99c-0.49,1135.9 -0.74,1703.85 -0.74,1703.85 -723.92,51.95 -1431.73,162.28 -2123.44,330.98 0,0 -350.33,68.26 -1051,204.78 0,0 -44.6,-7.74 -133.8,-23.23 0,0 -30.91,-26.81 -92.74,-80.45"/>
  <path class="fil0 str0" d="M8064.48 3892.11c1.63,1074 2.45,1610.99 2.45,1610.99 0,0 -87.27,4.99 -261.82,14.96 0,0 -154.59,22.44 -463.76,67.32 0,0 -85.15,290.13 -255.44,870.4 0,0 -206.72,75.18 -620.15,225.54 -453.56,201 -819.61,410.74 -1098.16,629.24 -922.51,709.24 -1834.65,1439.08 -2736.41,2189.52 0,0 -2.61,-194.71 -7.85,-584.13 -0.52,1.93 -98.52,-222.9 -294.02,-674.5 0,0 -3.02,-35.83 -9.07,-107.51 0,0 -24.19,44.68 -72.56,134.05 -748.38,-183.07 -1276,-852.17 -1279.49,-1622.6 -3.5,-770.44 518.02,-1444.3 1264.71,-1634.15 746.69,-189.85 1526.73,153.07 1891.65,831.62 622.58,-401.09 933.87,-601.63 933.87,-601.63 175.44,-77.7 263.16,-116.54 263.16,-116.54 82.71,-105.26 124.06,-157.9 124.06,-157.9 809.47,-349.11 1187.44,-518.33 1133.9,-507.64 357.98,-66.29 536.97,-99.44 536.97,-99.44 59.67,-235.34 89.5,-353.01 89.5,-353.01 93.8,-45.23 140.7,-67.85 140.7,-67.85 478.51,-31.15 717.76,-46.73 717.76,-46.73z"/>
  <path class="fil0 str0" d="M7231.31 7884.19c-232.86,28.28 -349.3,42.43 -349.3,42.43 -661.82,5.66 -992.74,8.48 -992.74,8.48 -223.44,-20.74 -335.15,-31.11 -335.15,-31.11"/>
  <path class="fil0 str0" d="M5554.12 7903.99c3.91,238.53 5.86,357.8 5.86,357.8 -149.28,-47.7 -223.93,-71.56 -223.93,-71.56 -16.15,261.37 -24.22,392.06 -24.22,392.06 63.35,552.4 95.02,828.6 95.02,828.6 155.02,650 232.53,975 232.53,975 520.93,79.28 781.56,118.48 781.89,117.59 519.28,-92.53 778.92,-138.8 778.92,-138.8 140.36,-655.26 210.54,-982.88 210.54,-982.88 51.13,-559.36 76.69,-839.04 76.69,-839.04 -21.02,-250.63 -31.54,-375.94 -31.54,-375.94 -149.33,49.23 -223.99,73.84 -223.99,73.84 -0.39,-237.64 -0.59,-356.46 -0.59,-356.46"/>
 </g>
</svg>
